<?xml version="1.0" encoding="UTF-8" standalone="no" ?>
<!DOCTYPE svg PUBLIC "-//W3C//DTD SVG 1.1//EN" "http://www.w3.org/Graphics/SVG/1.1/DTD/svg11.dtd">
<svg xmlns="http://www.w3.org/2000/svg" xmlns:xlink="http://www.w3.org/1999/xlink" version="1.1" width="500" height="150" viewBox="25 0 500 150" xml:space="preserve">
<desc>Created with Fabric.js 5.2.4</desc>
<defs>
</defs>
<rect x="0" y="0" width="100%" height="100%" fill="transparent"></rect>
<g transform="matrix(Infinity NaN NaN Infinity 0 0)" id="98ba0ae8-a83b-4c85-b17f-bd7e99b9d411"  >
</g>
<g transform="matrix(1 0 0 1 250 75)" id="545ea886-97e2-48fa-b3ad-b7b92230aaaf"  >
<rect style="stroke: none; stroke-width: 1; stroke-dasharray: none; stroke-linecap: butt; stroke-dashoffset: 0; stroke-linejoin: miter; stroke-miterlimit: 4; fill: rgb(255,255,255); fill-rule: nonzero; opacity: 1; visibility: hidden;" vector-effect="non-scaling-stroke"  x="-250" y="-75" rx="0" ry="0" width="500" height="150" />
</g>
<g transform="matrix(1.18 0 0 1.18 176.78 75)"  >
<g style="" vector-effect="non-scaling-stroke"   >
		<g transform="matrix(1.07 0 0 1.07 -6.51 23.46)"  >
<path style="stroke: rgb(255,102,0); stroke-width: 0.29; stroke-dasharray: none; stroke-linecap: butt; stroke-dashoffset: 0; stroke-linejoin: miter; stroke-miterlimit: 4; fill: rgb(160,44,44); fill-rule: evenodd; opacity: 1;" vector-effect="non-scaling-stroke"  transform=" translate(-48.11, -76.53)" d="M 6.8449182 61.811029 C 4.1148913 66.189863 4.9053401 69.248519 5.8726463 72.240854 L 50.155209 102.64645 L 91.255791 85.32233 L 88.07381 83.201009 L 87.366703 79.665475 C 88.498057 78.572999 89.564187 77.493567 90.283519 76.483495 C 90.481281 75.27976000000001 91.390996 73.720048 89.841577 73.389903 L 42.907364 50.408932 L 10.822394 60.573592 L 9.3197919 61.987806 Z" stroke-linecap="round" />
</g>
		<g transform="matrix(1.07 0 0 1.07 -29.05 30.89)"  >
<path style="stroke: none; stroke-width: 0.29; stroke-dasharray: none; stroke-linecap: butt; stroke-dashoffset: 0; stroke-linejoin: miter; stroke-miterlimit: 4; fill: rgb(0,0,0); fill-rule: evenodd; opacity: 0.3;" vector-effect="non-scaling-stroke"  transform=" translate(-27.04, -83.51)" d="M 5.6958696 64.904621 C 20.468754 73.322546 34.349671 88.425881 48.122277 95.752155 L 49.271326 102.11611 L 5.2539279 72.064077 C 5.1273818 69.677592 4.1040135 67.291106 5.6958696 64.904621 Z" stroke-linecap="round" />
</g>
		<g transform="matrix(1.07 0 0 1.07 17.28 35.8)"  >
<path style="stroke: rgb(0,0,0); stroke-width: 0.29; stroke-dasharray: none; stroke-linecap: butt; stroke-dashoffset: 0; stroke-linejoin: miter; stroke-miterlimit: 4; fill: rgb(244,238,215); fill-rule: evenodd; opacity: 1;" vector-effect="non-scaling-stroke"  transform=" translate(-70.49, -88.13)" d="M 51.150153 91.137279 C 50.231047000000004 94.380105 50.389893 97.263614 51.592095 99.79933700000001 L 88.450036 84.861706 C 88.20852599999999 85.827744 87.071369 79.520917 87.521958 79.160657 C 87.847659 78.90025 90.659418 76.641372 90.39457999999999 76.464813 L 54.155357 90.430172 C 53.415198000000004 91.189025 52.587904 91.773609 51.150153 91.13727899999999 z" stroke-linecap="round" />
</g>
		<g transform="matrix(1.07 0 0 1.07 17.34 35.77)"  >
<path style="stroke: none; stroke-width: 1.77; stroke-dasharray: none; stroke-linecap: butt; stroke-dashoffset: 0; stroke-linejoin: miter; stroke-miterlimit: 4; fill: rgb(222,205,135); fill-rule: evenodd; opacity: 1;" vector-effect="non-scaling-stroke"  transform=" translate(-70.54, -88.1)" d="M 91.103393 75.486746 L 54.204956 89.646902 C 53.922139 89.882333 53.119359 90.772413 52.601440000000004 90.881277 C 51.992299 91.009315 51.349042000000004 90.202851 50.589721000000004 91.119558 C 49.952057 92.939752 49.875979 94.189378 50.085815000000004 95.887136 C 50.36094000000001 98.11314 50.494705 98.748193 51.228393000000004 100.72113 L 88.650268 85.541433 C 89.165847 83.922639 88.405923 82.33162 88.161987 80.891043 C 88.080767 80.354922 88.093597 79.881554 88.343628 79.283621 C 88.59366399999999 78.685687 89.46430099999999 78.29941699999999 90.384643 77.287527 C 90.930596 76.68726699999999 91.05119599999999 76.087006 91.103393 75.486746 z M 88.968628 77.394949 C 89.098339 78.103786 87.81456899999999 78.003029 87.189331 78.78948 C 87.05811899999999 78.95452399999999 86.957805 79.143581 86.874878 79.340261 C 86.398073 79.502442 84.56769299999999 80.122706 83.593628 80.482839 C 79.53941599999999 81.981774 71.450037 85.050051 71.550659 85.293386 C 71.651281 85.536721 79.59481 82.18664199999999 83.63855 80.867605 C 84.675546 80.529344 86.27148899999999 80.033559 86.708862 79.896902 C 86.584875 80.432608 86.566954 80.941924 86.599487 81.156667 C 86.798136 82.467912 86.989032 83.382075 86.968628 84.301199 L 52.027221 98.824636 C 51.518029999999996 97.592488 51.163483 96.425612 51.089721 95.168386 C 51.483608 95.020653 60.433733 91.662454 65.134643 89.672293 C 69.264974 87.923688 77.87386699999999 84.882713 77.706909 84.635183 C 77.539951 84.387653 68.993546 87.401281 64.874878 89.273855 C 60.455352 91.283216 52.149288999999996 94.336739 51.072143 94.635183 C 51.078742999999996 93.845829 51.196079999999995 93.01583 51.472533999999996 92.10198 C 51.731322999999996 92.13486 52.71682 92.18476 52.980346999999995 92.143 C 53.568681 92.04977 53.983579999999996 91.537397 54.572143 90.9555 C 55.884643 90.4555 88.968628 77.394957 88.968628 77.394953 z M 71.605347 89.055105 C 67.23696 90.815855 55.789832999999994 95.600961 55.769408999999996 95.822683 C 55.748988999999995 96.044404 67.450144 91.257209 71.775268 89.496511 C 75.75271 87.877349 85.74911 84.159351 85.004336 84.122015 C 84.259563 84.084675 75.30454 87.564085 71.605347 89.055105 z" stroke-linecap="round" />
</g>
		<g transform="matrix(1.07 0 0 1.07 -6.21 23.62)"  >
<path style="stroke: none; stroke-width: 1.77; stroke-dasharray: none; stroke-linecap: butt; stroke-dashoffset: 0; stroke-linejoin: miter; stroke-miterlimit: 4; fill: rgb(80,22,22); fill-rule: evenodd; opacity: 1;" vector-effect="non-scaling-stroke"  transform=" translate(-48.39, -76.67)" d="M 43.150268 49.426199 L 9.6932366 59.723074 C 9.6932366 59.723074 9.2710136 60.800425 8.790893 61.010183 C 8.090470100000001 61.316188999999994 6.5194086 60.699636 6.5194086 60.699636 C 5.1242294 61.345521 4.096495300000001 64.155197 3.9373774000000004 66.746511 C 3.7782593 69.337825 4.3068542 71.890796 5.1600336 72.846121 L 49.408081 103.66057 C 50.070497 104.03506 50.406878000000006 103.92049 50.744018000000004 103.80705 L 92.210815 86.693777 C 93.031424 86.322861 93.07273099999999 85.443573 92.376831 84.496511 L 88.310425 81.674246 C 88.638188 83.150977 88.88018199999999 84.54459899999999 88.708862 85.355886 C 80.610079 88.600656 61.767422999999994 96.234869 51.040893 100.81291999999999 C 50.206430999999995 99.65058499999999 50.113028 97.867837 49.949096999999995 96.29533899999998 C 49.766617 94.54492799999998 49.939997 92.19928599999999 50.628783999999996 91.16057399999998 C 51.317600999999996 90.12186199999998 52.151495 91.14887399999998 52.69519 90.89494899999998 C 53.133678999999994 90.69015899999998 53.808595 90.22333899999998 54.173705999999996 89.67815199999998 C 62.505801 86.88904399999998 80.86603299999999 79.47341899999998 92.062378 75.11565199999998 C 92.86714099999999 74.28897299999998 92.42603199999999 73.77376199999998 91.923706 73.27385499999998 z M 42.986206 51.50823 L 88.595581 74.267996 L 52.949097 87.881277 C 52.949097 87.881277 52.460815000000004 88.697683 52.023315000000004 88.853933 C 51.644548 88.989207 51.064852 88.464037 50.650268000000004 88.32073 C 50.140146 88.14439899999999 49.29032600000001 88.46715 48.925659 89.035574 C 48.057541 90.388752 47.532597 92.043668 47.255737 93.621511 C 46.922551000000006 95.520361 47.187657 97.365323 47.691284 99.03948 L 7.8572992 71.631277 C 6.9480177 71.012998 6.0546322 69.172006 6.1737055 67.232839 C 6.2944341 65.266715 6.7762712 63.2401 8.0662836 62.617605 C 8.0662836 62.617605 9.5223926 63.132659999999994 9.9744866 62.996511 C 10.483378 62.843256 11.099487 61.752371 11.099487 61.752371 z M 10.885178 64.080711 C 10.112448 64.404269 23.046357999999998 71.96609799999999 29.839721 76.029714 C 36.381379 79.942764 50.390534 88.198832 50.802611999999996 87.545339 C 51.21469 86.891845 37.13828 79.114599 30.622925 75.203543 C 24.028377 71.244948 11.657907 63.757152 10.885178 64.080711 Z" stroke-linecap="round" />
</g>
		<g transform="matrix(1.07 0 0 1.07 -9.01 11.9)"  >
<path style="stroke: rgb(255,0,0); stroke-width: 0.29; stroke-dasharray: none; stroke-linecap: butt; stroke-dashoffset: 0; stroke-linejoin: miter; stroke-miterlimit: 4; fill: rgb(0,170,0); fill-rule: evenodd; opacity: 1;" vector-effect="non-scaling-stroke"  transform=" translate(-45.78, -65.7)" d="M 8.4359084 44.486913 L 11.706278000000001 43.603029 L 46.531287000000006 43.337863999999996 L 85.33377100000001 67.025942 L 83.74278100000001 67.909825 L 82.151791 72.594407 C 82.608457 73.86132 82.570845 76.116791 83.654393 76.129941 L 35.217578 88.062368 L 6.2261997 53.944466 C 6.6552695 50.689448 5.4680926 46.895682 8.4359084 44.486913 Z" stroke-linecap="round" />
</g>
		<g transform="matrix(1.07 0 0 1.07 -34.78 13.69)"  >
<path style="stroke: none; stroke-width: 0.29; stroke-dasharray: none; stroke-linecap: butt; stroke-dashoffset: 0; stroke-linejoin: miter; stroke-miterlimit: 4; fill: rgb(0,0,0); fill-rule: evenodd; opacity: 0.29;" vector-effect="non-scaling-stroke"  transform=" translate(-21.69, -67.38)" d="M 7.4333065 46.606393 C 17.805519 56.873967 25.006659 68.709432 33.740865 79.572645 C 33.589702 82.145512 33.299535999999996 84.205316 36.808568 88.150757 C 35.65952 87.659478 34.510471 87.564744 33.361423 86.206213 L 6.5797531 54.121243 Z" stroke-linecap="round" />
</g>
		<g transform="matrix(1.07 0 0 1.07 4.97 24.38)"  >
<path style="stroke: rgb(0,0,0); stroke-width: 0.29; stroke-dasharray: none; stroke-linecap: butt; stroke-dashoffset: 0; stroke-linejoin: miter; stroke-miterlimit: 4; fill: rgb(244,238,215); fill-rule: evenodd; opacity: 1;" vector-effect="non-scaling-stroke"  transform=" translate(-58.94, -77.44)" d="M 36.654464 76.818367 C 37.82776 76.972729 38.967198999999994 77.36408399999999 40.366775 75.934483 L 82.88157 69.216969 C 81.842765 71.42355500000001 81.563588 73.521623 82.174463 75.492541 L 37.626736 85.657201 C 36.007419 84.654898 35.270630000000004 83.211332 35.063474 81.502949 C 34.873775 80.211432 34.979544 78.809117 36.654464 76.818367 z" stroke-linecap="round" />
</g>
		<g transform="matrix(1.07 0 0 1.07 5.84 24.13)"  >
<path style="stroke: none; stroke-width: 1.77; stroke-dasharray: none; stroke-linecap: butt; stroke-dashoffset: 0; stroke-linejoin: miter; stroke-miterlimit: 4; fill: rgb(222,205,135); fill-rule: evenodd; opacity: 1;" vector-effect="non-scaling-stroke"  transform=" translate(-59.75, -77.21)" d="M 84.953003 68.221121 C 69.78432799999999 70.40015199999999 47.872403999999996 73.707702 39.896361999999996 75.209402 C 39.576569 75.648602 39.038703 76.029606 38.357299999999995 76.187917 C 38.099503999999996 76.247807 37.470003 76.127857 36.759643 76.064871 C 35.080532 77.15813 34.363803 79.407364 34.589721 81.484793 C 34.878927999999995 84.144165 35.964157 85.168345 37.395405 86.191824 C 52.755098999999994 82.78438299999999 68.11479299999999 79.981003 83.474487 75.842214 C 82.36413999999999 72.389903 83.406807 70.347491 84.953003 68.221121 z M 81.69519 70.125417 C 81.114504 71.252449 81.01898299999999 71.99870299999999 81.183471 73.264089 C 80.857891 73.325279 77.213606 74.007879 75.26355 74.389089 C 72.892721 74.85255599999999 68.28259299999999 75.522272 68.275268 75.865652 C 68.267968 76.20903299999999 73.071811 75.422958 75.425659 74.935964 C 77.163394 74.576439 80.401406 74.186773 81.230347 73.562917 C 81.274327 73.857541 81.314757 74.138243 81.380737 74.500417 L 37.863159 84.742605 C 37.302580000000006 84.402919 36.820254000000006 83.737228 36.472534 83.031667 C 37.218973000000005 82.886466 44.211949000000004 81.528606 47.902221000000004 80.953543 C 52.150941 80.291456 60.612967000000005 78.466324 60.495971000000004 78.162527 C 60.378975000000004 77.85873099999999 52.420066000000006 79.902599 47.833862 80.381277 C 44.018456 80.77950299999999 36.883808 82.265046 36.204956 82.406667 C 36.071859 82.032602 35.973698000000006 81.668708 35.953003 81.359793 C 35.845495 79.755054 35.804553000000006 78.671021 37.210815000000004 77.252371 C 37.514437 77.49940099999999 38.185311000000006 77.660876 38.722534 77.545339 C 39.503557 77.37737 39.861816000000005 77.176137 40.345581 76.641043 z M 76.152221 72.639089 C 75.385814 72.500451 65.120198 74.443923 59.818237 75.283621 C 52.52839 76.43815 37.876629 78.355849 38.0448 78.781667 C 38.212972 79.207488 52.833308 76.92295299999999 60.183471 75.707449 C 65.764315 74.78453999999999 76.91863 72.777727 76.152221 72.639089 z" stroke-linecap="round" />
</g>
		<g transform="matrix(1.07 0 0 1.07 -8.27 11.98)"  >
<path style="stroke: none; stroke-width: 1.77; stroke-dasharray: none; stroke-linecap: butt; stroke-dashoffset: 0; stroke-linejoin: miter; stroke-miterlimit: 4; fill: rgb(0,85,0); fill-rule: evenodd; opacity: 1;" vector-effect="non-scaling-stroke"  transform=" translate(-46.47, -65.77)" d="M 46.818237 42.406667 L 11.179565000000004 42.752371 C 10.947962000000004 43.082358 10.394849000000004 43.568631999999994 10.124878000000004 43.629324 C 9.840971600000005 43.693154 9.071317000000004 43.068591999999995 8.599486700000003 43.250417 C 6.459716700000003 44.075005 6.2404243000000035 46.586402 5.8729242000000035 47.978933 C 5.212191300000003 50.482582 5.801250200000004 54.289117999999995 6.554564800000003 55.420339 C 7.679564800000003 56.732839 33.346532 87.118296 34.32605 88.084402 C 35.457471000000005 89.200333 36.493955 89.352567 38.380737 88.859793 C 46.806055 86.65933199999999 71.324922 81.317797 86.81433100000001 77.10198 C 87.727815 76.624115 87.35227300000001 75.83375099999999 86.68347100000001 75.199636 L 82.96862800000001 72.943777 C 82.98586800000001 73.959493 83.130385 74.885145 83.42956500000001 75.838308 C 69.03553800000002 79.158109 51.89196600000001 82.892679 37.29284700000001 86.178152 C 36.02292700000001 85.731359 34.73645600000001 83.73845399999999 34.58972100000001 82.699636 C 34.18373600000001 79.825433 34.72495900000001 78.462237 35.27722100000001 77.662527 C 35.82720400000001 76.86612 36.25026600000001 76.38412699999999 36.75378400000001 76.07073 C 37.31021300000001 76.12796999999999 38.13316500000001 76.36542299999999 38.62292500000001 76.182058 C 39.14191900000001 75.987746 39.50516000000001 75.60875 39.88659700000001 75.254324 L 86.21472100000001 68.023855 C 86.93452 67.47996499999999 86.47161500000001 66.718136 86.11315900000001 66.392996 z M 46.400268 44.488699 L 82.63855 66.63323 L 38.777221 73.377371 C 38.29427 73.623989 38.124866999999995 74.18561 37.910033999999996 74.266043 C 37.695203 74.346473 37.00433699999999 74.183593 36.421752999999995 74.127371 C 35.211960999999995 74.483192 33.645072 76.677129 33.263549999999995 78.234793 C 32.39100499999999 81.797186 33.062267999999996 83.633506 34.646361999999996 86.168386 L 8.2869867 54.498464 C 7.6504031 53.529287 7.2896665 51.904345 7.712768 49.262136 C 7.9226753 47.951295 8.3666704 46.683319 9.040893 45.603933 C 9.4672526 45.636553 9.8470636 45.938773 10.558471 45.709402 C 11.474531 45.414047999999994 11.458570000000002 44.716665 11.677612 44.63323 z M 11.19359 46.842935 C 10.701786 47.290806999999994 19.429943 55.652484 23.734253000000002 60.13323 C 28.089853 64.667368 36.226330000000004 74.069546 36.872925 73.57073 C 37.51952 73.071915 28.878544 63.923049 24.540893 59.410574 C 20.349262 55.050004 11.685393 46.395064 11.19359 46.842935 Z" stroke-linecap="round" />
</g>
		<g transform="matrix(1.07 0 0 1.07 -5.83 -1.53)"  >
<path style="stroke: rgb(255,102,0); stroke-width: 0.29; stroke-dasharray: none; stroke-linecap: butt; stroke-dashoffset: 0; stroke-linejoin: miter; stroke-miterlimit: 4; fill: rgb(0,85,212); fill-rule: evenodd; opacity: 1;" vector-effect="non-scaling-stroke"  transform=" translate(-48.76, -53.1)" d="M 45.382238 29.284117 L 7.3752483 34.675806 C 6.0899181 37.992018 4.0556668 40.896323 7.2868599 46.696622 L 47.061617 76.925437 L 91.962898 63.578796 L 88.60414 61.722641 C 88.68506000000001 58.239164 89.565476 55.192118 91.432567 51.469592000000006 z" stroke-linecap="round" />
</g>
		<g transform="matrix(1.07 0 0 1.07 -30 3.88)"  >
<path style="stroke: none; stroke-width: 0.29; stroke-dasharray: none; stroke-linecap: butt; stroke-dashoffset: 0; stroke-linejoin: miter; stroke-miterlimit: 4; fill: rgb(0,0,0); fill-rule: evenodd; opacity: 0.3;" vector-effect="non-scaling-stroke"  transform=" translate(-26.16, -58.19)" d="M 5.6958697 39.713942 C 17.991907 51.124684 31.495687 59.767073 44.23319 68.970485 C 44.483827 71.689421 44.756516 74.402056 46.619675 76.660271 L 7.0216949 46.343068 C 5.6477246 44.288698 5.6939575 41.997627 5.6958697 39.713942 Z" stroke-linecap="round" />
</g>
		<g transform="matrix(1.07 0 0 1.07 14.9 10.61)"  >
<path style="stroke: rgb(0,0,0); stroke-width: 0.29; stroke-dasharray: none; stroke-linecap: butt; stroke-dashoffset: 0; stroke-linejoin: miter; stroke-miterlimit: 4; fill: rgb(244,238,215); fill-rule: evenodd; opacity: 1;" vector-effect="non-scaling-stroke"  transform=" translate(-68.25, -64.53)" d="M 47.791396 64.88594 C 46.890722 66.424341 46.60221 68.26882300000001 46.642347 70.277629 L 47.879784 73.72477400000001 L 88.980366 62.94139600000001 L 88.626813 58.69875500000001 L 89.86425 55.339998000000016 z" stroke-linecap="round" />
</g>
		<g transform="matrix(1.07 0 0 1.07 15.69 10.54)"  >
<path style="stroke: none; stroke-width: 1.77; stroke-dasharray: none; stroke-linecap: butt; stroke-dashoffset: 0; stroke-linejoin: miter; stroke-miterlimit: 4; fill: rgb(222,205,135); fill-rule: evenodd; opacity: 1;" vector-effect="non-scaling-stroke"  transform=" translate(-68.99, -64.46)" d="M 91.927612 54.025808 L 89.910034 54.478933 L 47.78894 63.834402 C 47.016461 64.66806799999999 45.721619 66.322621 46.124877999999995 69.920339 C 46.331458 71.763366 46.799552 73.419782 47.927611999999996 74.892996 L 89.562378 63.517996 C 89.733263 62.448952 89.579188 60.305383 89.712768 58.75823 C 89.846356 57.211076999999996 90.351199 56.65201 90.863159 55.799246 z M 88.644409 56.252371 C 88.42939799999999 57.02103399999999 88.108509 57.737306 87.958862 58.537527 C 87.453187 58.519906999999996 86.70554299999999 58.504847 86.267456 58.596117 C 83.69240599999999 59.132603 78.557029 60.559591 78.706909 60.855882 C 78.85678899999999 61.152174 83.510648 59.461443 86.454956 59.277757 C 86.880905 59.251187 87.438681 59.280757 87.863159 59.309007 C 87.82311899999999 59.790406000000004 87.80216899999999 60.183268 87.785029 60.568773 C 83.21040199999999 61.721102 78.12118799999999 62.958209 73.56042 64.080492 C 67.687849 65.525575 58.94802899999999 67.422926 59.06041999999999 67.91057 C 59.17280999999999 68.39821400000001 67.90454799999999 66.019282 73.734248 64.58439800000001 C 78.292012 63.46258000000001 83.192758 62.39781700000001 87.767451 61.25432000000001 C 87.772751 61.56524700000001 87.790931 61.84701200000001 87.84167099999999 62.07072600000001 L 49.003784 72.627371 C 47.781705 72.13659799999999 47.773594 70.82726 47.640503 69.822683 C 47.439305000000004 68.304033 47.436910000000005 66.553113 48.443237 65.740652 z M 66.363159 63.045339 C 59.956376999999996 64.626934 48.22760099999999 67.730688 48.331908999999996 68.041433 C 48.436217 68.352178 60.125389 65.193245 66.454956 63.475027 C 69.802168 62.566396 76.665504 60.882908 76.05411099999999 60.720456999999996 C 75.44271699999999 60.558006999999996 69.49660999999999 62.27180799999999 66.363159 63.045339 z" stroke-linecap="round" />
</g>
		<g transform="matrix(1.07 0 0 1.07 -4.92 -1.2)"  >
<path style="stroke: none; stroke-width: 1.77; stroke-dasharray: none; stroke-linecap: butt; stroke-dashoffset: 0; stroke-linejoin: miter; stroke-miterlimit: 4; fill: rgb(0,34,85); fill-rule: evenodd; opacity: 1;" vector-effect="non-scaling-stroke"  transform=" translate(-49.6, -53.41)" d="M 45.415893 28.680105 L 7.7010492 33.687917 C 5.7640058 34.241944 4.6584582 38.475687 4.7420648 41.035574 C 4.807459799999999 43.037844 5.9106933999999995 46.207854 7.1639398 47.594167 L 47.324097 78.137136 L 93.88269 64.611746 C 94.46844999999999 63.849447999999995 94.181437 63.436257999999995 93.96082 62.996511 L 89.578008 60.336355 C 89.578008 60.336355 89.681523 62.248464 89.556528 63.498464 C 77.586776 66.64014 58.658941 71.82899 47.46668 74.980886 C 46.777364999999996 74.288493 45.837838999999995 71.61496199999999 45.785039 69.900808 C 45.694908999999996 66.974863 46.139495 65.12250399999999 47.275273 64.096121 L 94.062383 53.560964 C 94.605366 53.209125 94.66929499999999 52.34242 93.876836 51.576589 z M 45.28894 30.293386 L 89.745971 52.019949 L 45.255736999999996 61.918386 C 43.68725499999999 63.832924999999996 43.293758999999994 65.931924 43.329955999999996 68.033621 C 43.360206 69.789906 43.837731999999995 72.378272 44.677611999999996 73.750417 L 8.4451898 45.807058 C 7.5465695 44.997127 6.8931271 42.429993 6.8905024 41.283621 C 6.8864553 39.516035 7.4902063 37.775498 8.5233148 35.557058 Z M 10.509802999999998 36.835732 C 9.583319599999998 37.240593 25.441283999999996 48.541433 25.441283999999996 48.541433 C 25.441283999999996 48.541433 43.856379 61.952573 44.079955999999996 61.328542999999996 C 44.303532999999995 60.704513 26.745971999999995 47.303152 26.745970999999997 47.303152 C 26.745970999999997 47.303152 11.436284999999998 36.430870999999996 10.509802999999998 36.83573199999999 z" stroke-linecap="round" />
</g>
		<g transform="matrix(1.07 0 0 1.07 1.59 -15.11)"  >
<path style="stroke: rgb(255,102,0); stroke-width: 0.29; stroke-dasharray: none; stroke-linecap: butt; stroke-dashoffset: 0; stroke-linejoin: miter; stroke-miterlimit: 4; fill: rgb(255,204,0); fill-rule: evenodd; opacity: 1;" vector-effect="non-scaling-stroke"  transform=" translate(-55.7, -40.38)" d="M 51.304258 18.147185 L 14.623093 28.57701 C 14.623093 28.57701 14.181151000000002 29.991224000000003 13.650821 29.902835000000003 C 13.120491000000001 29.814445000000003 10.910783 29.814445000000003 10.910783 29.814445000000003 C 8.9442602 32.322211 8.900453500000001 34.701796 10.468841000000001 36.973901000000005 L 62.794743 62.606522000000005 L 101.86239 48.464387 L 100.09463000000001 46.961785 L 101.95078000000001 44.221745999999996 L 102.03918 39.890716999999995 z" stroke-linecap="round" />
</g>
		<g transform="matrix(1.07 0 0 1.07 -18.62 -6.98)"  >
<path style="stroke: none; stroke-width: 0.29; stroke-dasharray: none; stroke-linecap: butt; stroke-dashoffset: 0; stroke-linejoin: miter; stroke-miterlimit: 4; fill: rgb(0,0,0); fill-rule: evenodd; opacity: 0.3;" vector-effect="non-scaling-stroke"  transform=" translate(-36.81, -48.02)" d="M 10.292064 33.173204 C 27.557255 42.618865 44.884945 50.400704 62.150136 57.437107 L 63.325073 62.871688999999996 L 10.292064000000003 37.239067999999996 z" stroke-linecap="round" />
</g>
		<g transform="matrix(1.07 0 0 1.07 2.69 -14.57)"  >
<path style="stroke: none; stroke-width: 2.48; stroke-dasharray: none; stroke-linecap: butt; stroke-dashoffset: 0; stroke-linejoin: miter; stroke-miterlimit: 4; fill: rgb(170,136,0); fill-rule: evenodd; opacity: 1;" vector-effect="non-scaling-stroke"  transform=" translate(-56.72, -40.88)" d="M 51.333862 17.502371 C 39.001811000000004 20.934259 25.061167000000005 24.623195 13.837768000000004 27.582449 C 13.618970000000004 27.721335 13.538794000000005 28.261151 13.060425000000004 28.750417 C 12.851951000000003 28.963638999999997 11.977886000000003 28.513935999999998 11.667847000000004 28.549246 C 11.182168000000004 28.604556 10.622080000000004 29.01251 10.230347000000004 29.357839 C 9.696103600000004 29.828792999999997 9.535914600000003 30.290602 9.298705500000004 30.945729999999998 C 9.053740900000005 31.622272999999996 9.060425100000003 32.375225 9.005736700000003 33.219167 C 8.896360000000003 34.907053 9.209485400000004 36.884639 9.915892600000003 37.812917 C 27.234293000000005 46.379374 45.774674000000005 55.914880999999994 62.35144 63.982839 C 62.699934999999996 64.252662 63.479026999999995 64.294249 63.921752999999995 64.219167 C 64.36448 64.144087 64.74222499999999 63.996036 64.880737 63.699636 C 64.968717 63.511368999999995 65.23189599999999 63.151396999999996 65.519409 62.963308 C 65.811942 62.771933999999995 66.089289 63.257951 66.747925 63.246511 L 102.96082 49.391043 C 103.36453 49.236569 103.62983 48.650932000000005 102.96282 48.113699000000004 L 100.65423 46.629324000000004 L 99.497979 48.361746000000004 C 88.743354 52.057658 76.597266 56.514403 65.22448700000001 60.680105000000005 C 64.35622500000001 60.494513000000005 63.35154200000001 58.665286 63.29870600000001 57.803152000000004 C 63.23976600000001 56.841463000000005 63.72665200000001 55.735800000000005 64.02526800000001 55.260183000000005 C 76.64794700000002 50.558707000000005 90.391591 45.886863000000005 104.05261000000002 41.043386000000005 C 104.69399000000001 40.68181200000001 104.50865000000002 40.11242000000001 103.95301000000002 39.451589000000006 L 51.333862 17.502371 Z M 51.273312000000004 19.100027 L 100.38464 40.517996 L 63.753781000000004 53.144949 C 62.914279 53.461701 62.394712000000006 54.139964 61.953 54.785574 C 61.378477000000004 55.625299999999996 60.984133 56.877596 61.076047 58.377371 C 61.161047 59.764396 61.506039 60.69878 61.974484000000004 61.449636 L 11.464721 36.428152 C 10.798244 35.447761 10.825476 34.554736 10.890503 33.379324 C 10.941653 32.454707 11.194502 31.644449999999996 11.736206000000001 30.959401999999997 C 11.800146000000002 30.878541999999996 12.520979 30.328988999999996 13.271362000000002 30.754323999999997 C 13.581773000000002 30.930272999999996 13.883480000000002 30.936234999999996 14.411987000000002 30.557057999999998 C 15.062775000000002 30.090151 14.835754000000001 29.662598 15.285034000000001 29.301198999999997 L 51.273315 19.100027 Z M 14.962768 30.498464 C 14.83653 30.474833999999998 14.761514 30.480134 14.740112 30.514094 C 14.397679 31.057299 29.159682 38.07748 36.47644 41.646907 C 44.562518 45.591643 60.673829 53.460175 60.960815 53.006282 C 61.247801 52.552384 44.924998 44.634392 36.78894 40.685964 C 29.961881 37.372792 16.856346 30.852941 14.962768 30.498464 Z" stroke-linecap="round" />
</g>
		<g transform="matrix(1.07 0 0 1.07 30.68 -3.72)"  >
<path style="stroke: rgb(0,0,0); stroke-width: 0.29; stroke-dasharray: none; stroke-linecap: butt; stroke-dashoffset: 0; stroke-linejoin: miter; stroke-miterlimit: 4; fill: rgb(244,238,215); fill-rule: evenodd; opacity: 1;" vector-effect="non-scaling-stroke"  transform=" translate(-83.05, -51.1)" d="M 102.15023 42.081746 L 64.20574 55.682828 C 63.831467 57.282053 63.85032700000001 57.738658 64.21646000000001 58.40234 L 65.38067300000002 60.112969 L 99.72712900000002 47.785015 C 101.35544600000001 45.772023000000004 102.35117600000002 43.845293 102.15022600000002 42.081746 z" stroke-linecap="round" />
</g>
		<g transform="matrix(1.07 0 0 1.07 30.87 -3.72)"  >
<path style="stroke: none; stroke-width: 1; stroke-dasharray: none; stroke-linecap: butt; stroke-dashoffset: 0; stroke-linejoin: miter; stroke-miterlimit: 4; fill: rgb(222,205,135); fill-rule: evenodd; opacity: 1;" vector-effect="non-scaling-stroke"  transform=" translate(-83.23, -51.09)" d="M 102.79285 41.512136 C 89.431704 45.882625 70.93540899999999 52.808295 64.14245600000001 55.144949 C 63.37387600000001 55.989587 63.43021700000001 57.064600999999996 63.68542500000001 58.055105 C 63.94063200000001 59.045609 64.75562800000002 60.423770999999995 65.34753400000001 60.662527 L 99.80651900000001 48.312917 C 100.06896 47.949934999999996 101.17250000000001 46.928078 101.91003 45.793386 C 102.2788 45.226040999999995 102.56433000000001 44.292716 102.70886 43.674246 C 102.85339 43.055777 103.09127 41.958709 102.79286 41.512136 z M 101.50769 42.783621 C 101.76301 43.594313 101.20018999999999 44.229282999999995 100.81824 44.853933 C 100.21032 45.848107999999996 99.401419 46.842914 98.867065 47.555105 L 65.800659 59.412527 C 65.26798199999999 59.133151999999995 64.84004999999999 58.526517 64.654175 57.805105 C 64.463357 57.06451 64.526783 56.272559 64.74011499999999 55.934011 z M 83.980347 49.834402 C 78.235621 51.931089 66.673244 55.665094999999994 66.839721 56.285574 C 67.006199 56.906054 78.49321599999999 52.385718999999995 84.290893 50.262136 C 89.74520199999999 48.264320999999995 100.11744 44.466986 99.911519 44.212424 C 99.70559899999999 43.957862999999996 89.144823 47.949493 83.980347 49.834402 z M 98.874878 46.432058 C 98.749583 46.277451 94.58407 47.729555999999995 92.535034 48.510183 C 90.606341 49.244962 65.654027 58.173668 65.769409 58.480886 C 65.88479099999999 58.788105 90.911832 49.680251999999996 92.863159 48.94573 C 94.895555 48.180690999999996 99.00017299999999 46.586664999999996 98.874878 46.432058 z" stroke-linecap="round" />
</g>
		<g transform="matrix(1.07 0 0 1.07 1.57 -26.56)"  >
<path style="stroke: rgb(255,102,0); stroke-width: 0.29; stroke-dasharray: none; stroke-linecap: butt; stroke-dashoffset: 0; stroke-linejoin: miter; stroke-miterlimit: 4; fill: rgb(212,0,0); fill-rule: evenodd; opacity: 1;" vector-effect="non-scaling-stroke"  transform=" translate(-55.67, -29.64)" d="M 54.309461 6.0379816 L 13.297268 14.16971 C 10.298375 17.067885 9.2305876 20.701719 11.175948000000002 25.483418 L 52.806859 53.237359999999995 L 101.15529000000001 41.039767 L 96.91264500000001 38.034563999999996 L 96.559092 33.438368999999994 L 100.44818000000001 28.135068999999994 z" stroke-linecap="round" />
</g>
		<g transform="matrix(1.07 0 0 1.07 -23.59 -18.38)"  >
<path style="stroke: none; stroke-width: 0.29; stroke-dasharray: none; stroke-linecap: butt; stroke-dashoffset: 0; stroke-linejoin: miter; stroke-miterlimit: 4; fill: rgb(0,0,0); fill-rule: evenodd; opacity: 0.28;" vector-effect="non-scaling-stroke"  transform=" translate(-32.17, -37.33)" d="M 10.999171 21.594331 C 24.610977 30.413007 38.222781999999995 37.731502 51.834588 44.928855 L 53.513965999999996 53.060583 L 50.685539 52.176699 L 10.822393999999996 25.218253 z" stroke-linecap="round" />
</g>
		<g transform="matrix(1.07 0 0 1.07 22.96 -14.65)"  >
<path style="stroke: rgb(0,0,0); stroke-width: 0.29; stroke-dasharray: none; stroke-linecap: butt; stroke-dashoffset: 0; stroke-linejoin: miter; stroke-miterlimit: 4; fill: rgb(244,238,215); fill-rule: evenodd; opacity: 1;" vector-effect="non-scaling-stroke"  transform=" translate(-75.81, -40.84)" d="M 55.481182 41.639804 L 97.995978 31.033202 C 96.168359 35.066731 96.95618499999999 36.811745 96.84692899999999 39.341707 L 54.420522 50.655416 L 53.625027 46.67794 Z" stroke-linecap="round" />
</g>
		<g transform="matrix(1.07 0 0 1.07 24.07 -14.8)"  >
<path style="stroke: none; stroke-width: 1; stroke-dasharray: none; stroke-linecap: butt; stroke-dashoffset: 0; stroke-linejoin: miter; stroke-miterlimit: 4; fill: rgb(222,205,135); fill-rule: evenodd; opacity: 1;" vector-effect="non-scaling-stroke"  transform=" translate(-76.84, -40.7)" d="M 100.30066 29.816824 C 100.16203999999999 29.832954 100.01165999999999 29.901004 99.93346899999999 29.920339000000002 L 55.322143 40.777761 C 54.287333 42.495951999999996 53.256308999999995 44.19683 53.060424999999995 46.041433 C 52.876414999999994 47.774211 53.741296 50.053401 54.052611999999996 51.586355 L 98.068237 40.023855 C 97.733622 38.314617 97.50921199999999 36.751568 97.490112 35.365652 C 97.46686199999999 33.678751999999996 98.24029 32.434611999999994 98.999878 31.562917 C 99.37966899999999 31.127070999999997 99.669899 31.027517 99.96862899999999 30.812917 C 100.2182 30.63363 100.50804 30.489141999999998 100.60924999999999 30.316824 C 100.65664999999998 30.236134 100.63864999999998 30.173489 100.60725 30.019949 C 100.56994999999999 29.835539 100.43991999999999 29.800616 100.30060999999999 29.816824 z M 96.4198 32.004324 C 95.74364399999999 32.830872 95.56602699999999 33.442173999999994 95.525268 34.084402 C 92.576026 34.514731999999995 83.15833599999999 36.559521999999994 78.046753 37.728933 C 72.102414 39.088857999999995 60.234289 41.991619 60.324096999999995 42.297292999999996 C 60.413906999999995 42.602968 72.33330099999999 39.815597 78.302612 38.449636 C 83.40421599999999 37.282233999999995 92.587983 35.242033 95.515503 34.38323 C 95.514203 34.766721999999994 95.533243 35.168715999999996 95.535033 35.654714 C 95.542833 37.773928 95.846257 38.5107 95.929564 38.891042999999996 L 54.872925 49.158621 C 54.73149 48.778259 54.646174 48.470132 54.581909 48.180105 C 55.455436000000006 48.187605 58.127706 47.68029 59.552612 47.330496 C 61.402527000000006 46.876368 67.557905 45.136492999999994 67.53112800000001 44.885183 C 67.50434800000001 44.633872 61.21295900000001 46.289099 59.30847100000001 46.756277 C 57.90923400000001 47.099515 55.34144000000001 47.603446 54.53894000000001 47.937917 C 54.44437000000001 47.368745 54.457110000000014 46.84154 54.50964000000001 46.014089 C 54.63625800000001 44.019546 55.54820500000001 42.815815 55.69909400000001 42.588308 z M 71.939331 41.699636 C 66.757521 42.838055 56.477678999999995 44.917332 56.501830999999996 45.363699 C 56.525980999999994 45.810067 66.971178 43.576167999999996 72.152221 42.437917 C 77.906072 41.173823999999996 89.416478 38.458208 88.598553 38.315525 C 87.78062899999999 38.172842 77.332849 40.514707 71.939331 41.699636 z" stroke-linecap="round" />
</g>
		<g transform="matrix(1.07 0 0 1.07 1.67 -26.26)"  >
<path style="stroke: none; stroke-width: 2.13; stroke-dasharray: none; stroke-linecap: butt; stroke-dashoffset: 0; stroke-linejoin: miter; stroke-miterlimit: 4; fill: rgb(170,0,0); fill-rule: evenodd; opacity: 1;" vector-effect="non-scaling-stroke"  transform=" translate(-55.77, -29.91)" d="M 54.484253 5.4691675 L 12.308471 13.674246 C 12.308471 13.674246 9.5323086 16.819357 9.576049600000001 20.057058 C 9.6185696 23.204832000000003 9.9891626 25.074661000000003 10.890503 25.97698 C 12.204296000000001 26.892654 52.800659 54.353933 52.800659 54.353933 L 101.72253 41.480886 C 102.22703 40.861227 101.8554 40.387549 101.48035 39.91448 L 97.736206 38.232839 L 98.062378 39.943777 C 83.648629 43.769433 68.428197 47.718014 53.792846999999995 51.350027 C 53.593821999999996 50.501957999999995 52.901011 48.130376 52.835815 47.301199 C 52.586895 44.135413 54.691776999999995 41.241009 54.968627999999995 40.873464 L 101.21277 29.918386 C 101.71900000000001 29.237231 101.57449000000001 28.336319000000003 101.03113 27.805105 z M 54.365112 6.9398706 L 98.367065 28.330496 L 54.036987 39.418386 C 54.036987 39.418386 50.692263000000004 42.763099 50.984253 47.236746 C 51.091311000000005 48.877010999999996 51.957266000000004 51.177383 52.117065000000004 51.801199 L 12.568237000000003 25.426198999999997 C 11.760733000000004 24.587978999999997 11.502475000000004 22.889118999999997 11.462768000000004 19.949635999999998 C 11.437068000000004 18.047327999999997 12.934224000000004 15.487986999999997 13.160034000000003 15.289479999999998 z M 13.902221 15.543386 C 13.670054 16.014159 26.462834 23.605936999999997 32.870971 27.422293 C 39.654241999999996 31.462057 52.869395 39.623234 53.47644 39.111746 C 54.08348599999999 38.600258999999994 40.284687 30.673008999999997 33.560424999999995 26.668385999999998 C 27.093280999999994 22.816888999999996 14.134387999999994 15.072613999999998 13.902220999999994 15.543385999999998 z" stroke-linecap="round" />
</g>
</g>
</g>
<g transform="matrix(0.34 0 0 0.34 360.45 75)" style="" id="cc7ca4a9-15c6-4c56-8c4b-5a9e543e5dd4"  >
		<text xml:space="preserve" font-family="Lato" font-size="81" font-style="normal" font-weight="400" style="stroke: none; stroke-width: 1; stroke-dasharray: none; stroke-linecap: butt; stroke-dashoffset: 0; stroke-linejoin: miter; stroke-miterlimit: 4; fill: rgb(255,255,255); fill-rule: nonzero; opacity: 1; white-space: pre;" ><tspan x="-329.02" y="25.45" >E-Learning System</tspan></text>
</g>
</svg>